/* XPM */
static char * bottom_left_active_xpm[] = {
"8 8 4 1",
" 	c None",
".	c #5B5252",
"+	c #2E2D2D",
"@	c #2B2B2B",
".+@@@@@@",
".+@@@@@@",
".+@@@@@@",
" .+@@@@@",
" .+@@@@@",
"  .++@@@",
"   ..+++",
"     ..."};
