/* XPM */
static char * bottom_right_active_xpm[] = {
"8 8 4 1",
" 	c None",
".	c #2B2B2B",
"+	c #2E2D2D",
"@	c #5B5252",
"......+@",
"......+@",
"......+@",
".....+@ ",
".....+@ ",
"...++@  ",
"+++@@   ",
"@@@     "};
