/* XPM */
static char * maximize_pressed_xpm[] = {
"18 18 8 1",
" 	c #2B2B2B",
".	c #8B5A5F",
"+	c #CD8188",
"@	c #D3858B",
"#	c #C77E84",
"$	c #C77E82",
"%	c #8B595D",
"&	c #8B5A5E",
"                  ",
"                  ",
"                  ",
"   .+@@@@@@@@#.   ",
"   $@@@@@@@@@@+   ",
"   @@@@@@@@@@@@   ",
"   @@@@@@@@@@@@   ",
"   @@@@@@@@@@@@   ",
"   @@@@@@@@@@@@   ",
"   @@@@@@@@@@@@   ",
"   @@@@@@@@@@@@   ",
"   @@@@@@@@@@@@   ",
"   @@@@@@@@@@@@   ",
"   +@@@@@@@@@@#   ",
"   %$@@@@@@@@+&   ",
"                  ",
"                  ",
"                  "};
