/* XPM */
static char * hide_pressed_xpm[] = {
"18 18 6 1",
" 	c #2B2B2B",
".	c #5B4547",
"+	c #825E61",
"@	c #866063",
"#	c #7F5B5E",
"$	c #5B4446",
"                  ",
"                  ",
"                  ",
"   .+@@@@@@@@#.   ",
"   #@@@@@@@@@@+   ",
"   @@@@@@@@@@@@   ",
"   @@@@@@@@@@@@   ",
"   @@@@@@@@@@@@   ",
"   @@@@@@@@@@@@   ",
"   @@@@@@@@@@@@   ",
"   @@@@@@@@@@@@   ",
"   @@@@@@@@@@@@   ",
"   @@@@@@@@@@@@   ",
"   +@@@@@@@@@@#   ",
"   $#@@@@@@@@+.   ",
"                  ",
"                  ",
"                  "};
