/* XPM */
static char * hide_inactive_xpm[] = {
"18 18 7 1",
" 	c #2B2B2B",
".	c #4F3E3F",
"+	c #6E5153",
"@	c #715355",
"#	c #6C4F51",
"$	c #6F5153",
"%	c #4F3D3E",
"                  ",
"                  ",
"                  ",
"   .+@@@@@@@@#.   ",
"   #@@@@@@@@@@$   ",
"   @@@@@@@@@@@@   ",
"   @@@@@@@@@@@@   ",
"   @@@@@@@@@@@@   ",
"   @@@@@@@@@@@@   ",
"   @@@@@@@@@@@@   ",
"   @@@@@@@@@@@@   ",
"   @@@@@@@@@@@@   ",
"   @@@@@@@@@@@@   ",
"   $@@@@@@@@@@#   ",
"   %#@@@@@@@@+.   ",
"                  ",
"                  ",
"                  "};
