/* XPM */
static char * close_inactive_xpm[] = {
"18 18 8 1",
" 	c #2B2B2B",
".	c #664C4E",
"+	c #92696C",
"@	c #976B6F",
"#	c #8F6669",
"$	c #93696C",
"%	c #654B4C",
"&	c #654C4D",
"                  ",
"                  ",
"                  ",
"   .+@@@@@@@@#.   ",
"   #@@@@@@@@@@$   ",
"   @@@@@@@@@@@@   ",
"   @@@@@@@@@@@@   ",
"   @@@@@@@@@@@@   ",
"   @@@@@@@@@@@@   ",
"   @@@@@@@@@@@@   ",
"   @@@@@@@@@@@@   ",
"   @@@@@@@@@@@@   ",
"   @@@@@@@@@@@@   ",
"   $@@@@@@@@@@#   ",
"   %#@@@@@@@@+&   ",
"                  ",
"                  ",
"                  "};
