/* XPM */
static char * close_prelight_xpm[] = {
"18 18 9 1",
" 	c #2B2B2B",
".	c #A27377",
"+	c #EDA7AD",
"@	c #F5ACB2",
"#	c #E7A3A8",
"$	c #E7A3A7",
"%	c #EEA7AD",
"&	c #A17175",
"*	c #A17376",
"                  ",
"                  ",
"                  ",
"   .+@@@@@@@@#.   ",
"   $@@@@@@@@@@%   ",
"   @@@@@@@@@@@@   ",
"   @@@@@@@@@@@@   ",
"   @@@@@@@@@@@@   ",
"   @@@@@@@@@@@@   ",
"   @@@@@@@@@@@@   ",
"   @@@@@@@@@@@@   ",
"   @@@@@@@@@@@@   ",
"   @@@@@@@@@@@@   ",
"   %@@@@@@@@@@#   ",
"   &$@@@@@@@@+*   ",
"                  ",
"                  ",
"                  "};
