/* XPM */
static char * top_left_active_xpm[] = {
"32 32 4 1",
" 	c None",
".	c #5B5252",
"+	c #2E2D2D",
"@	c #2B2B2B",
"     ...........................",
"   ..+++++++++++++++++++++++++++",
"  .++@@@@@@@@@@@@@@@@@@@@@@@@@@@",
" .+@@@@@@@@@@@@@@@@@@@@@@@@@@@@@",
" .+@@@@@@@@@@@@@@@@@@@@@@@@@@@@@",
".+@@@@@@@@@@@@@@@@@@@@@@@@@@@@@@",
".+@@@@@@@@@@@@@@@@@@@@@@@@@@@@@@",
".+@@@@@@@@@@@@@@@@@@@@@@@@@@@@@@",
".+@@@@@@@@@@@@@@@@@@@@@@@@@@@@@@",
".+@@@@@@@@@@@@@@@@@@@@@@@@@@@@@@",
".+@@@@@@@@@@@@@@@@@@@@@@@@@@@@@@",
".+@@@@@@@@@@@@@@@@@@@@@@@@@@@@@@",
".+@@@@@@@@@@@@@@@@@@@@@@@@@@@@@@",
".+@@@@@@@@@@@@@@@@@@@@@@@@@@@@@@",
".+@@@@@@@@@@@@@@@@@@@@@@@@@@@@@@",
".+@@@@@@@@@@@@@@@@@@@@@@@@@@@@@@",
".+@@@@@@@@@@@@@@@@@@@@@@@@@@@@@@",
".+@@@@@@@@@@@@@@@@@@@@@@@@@@@@@@",
".+@@@@@@@@@@@@@@@@@@@@@@@@@@@@@@",
".+@@@@@@@@@@@@@@@@@@@@@@@@@@@@@@",
".+@@@@@@@@@@@@@@@@@@@@@@@@@@@@@@",
".+@@@@@@@@@@@@@@@@@@@@@@@@@@@@@@",
".+@@@@@@@@@@@@@@@@@@@@@@@@@@@@@@",
".+@@@@@@@@@@@@@@@@@@@@@@@@@@@@@@",
".+@@@@@@@@@@@@@@@@@@@@@@@@@@@@@@",
".+@@@@@@@@@@@@@@@@@@@@@@@@@@@@@@",
".+@@@@@@@@@@@@@@@@@@@@@@@@@@@@@@",
".+@@@@@@@@@@@@@@@@@@@@@@@@@@@@@@",
".+@@@@@@@@@@@@@@@@@@@@@@@@@@@@@@",
".+@@@@@@@@@@@@@@@@@@@@@@@@@@@@@@",
".+@@@@@@@@@@@@@@@@@@@@@@@@@@@@@@",
".+@@@@@@@@@@@@@@@@@@@@@@@@@@@@@@"};
